<svg xmlns="http://www.w3.org/2000/svg" width="225.842" height="150.68" viewBox="0 0 225.842 150.68"><g transform="translate(-0.002)"><path d="M129.1,64.687a23.2,23.2,0,0,0-18.792,9.279l-.443-8.043V0h-9.676V35.982a23.288,23.288,0,0,0-18.454-8.825c-15.866,0-25.881,13.012-25.881,29.418s10.012,29.42,25.881,29.42a23.2,23.2,0,0,0,18.792-9.279l.443,8.043V150.68h9.676V114.7a23.288,23.288,0,0,0,18.454,8.825c15.866,0,25.882-13.012,25.882-29.418S144.966,64.687,129.1,64.687Zm-28.912-2c-2.138,8.373-8.776,14.37-16.879,14.37-11.028,0-17.666-9.052-17.666-20.48s6.638-20.592,17.666-20.592c8.1,0,14.742,6.109,16.879,14.483ZM127.525,114.7c-8.1,0-14.741-6.109-16.879-14.483V88c2.138-8.373,8.776-14.37,16.879-14.37,11.028,0,17.666,9.052,17.666,20.48S138.557,114.7,127.525,114.7Z" transform="translate(4.927)" fill="#d7e0eb" opacity="0.241"/><path d="M.3,57.122H6.988a9.794,9.794,0,0,1,4.673,1.088,7.95,7.95,0,0,1,3.175,3.007,8.939,8.939,0,0,1,0,8.718,7.944,7.944,0,0,1-3.176,3,9.794,9.794,0,0,1-4.673,1.088H.3ZM6.891,72.915a8.815,8.815,0,0,0,4.13-.93,6.649,6.649,0,0,0,2.752-2.6,8.018,8.018,0,0,0,0-7.632,6.651,6.651,0,0,0-2.752-2.6,8.827,8.827,0,0,0-4.13-.93H1.531V72.914Zm25.017,0v1.107H20.247v-16.9h11.3v1.11H21.477V64.9h9.007v1.088H21.477v6.931Zm16.229,1.107L44.1,68.371a12.326,12.326,0,0,1-1.642.121H37.635v5.53H36.4v-16.9h6.061a7.582,7.582,0,0,1,5,1.509,5.6,5.6,0,0,1-2.149,9.478l4.227,5.917ZM42.462,67.4a6.267,6.267,0,0,0,4.129-1.2,4.751,4.751,0,0,0,0-6.785,6.267,6.267,0,0,0-4.129-1.2H37.635V67.4Zm27.316,6.617-.024-14.466-7.073,12.22h-.6L55,59.605V74.022H53.8v-16.9h1.038l7.558,13.065,7.559-13.065h1.014l.024,16.9Zm13.2-16.9c4.321,0,6.809,2.124,6.809,5.892,0,3.96-2.488,6.254-6.809,6.254H79.915v4.753h-4.3v-16.9Zm-3.068,8.766h2.85c1.884,0,2.97-.941,2.97-2.728,0-1.763-1.088-2.656-2.97-2.656h-2.85Zm23.424,8.133V67.453h-7v6.568h-4.3v-16.9h4.3v6.954h7V57.123h4.3v16.9Zm16.4,0h-4.275V68.689l-6.254-11.567h4.3l4.081,7.365,3.985-7.365h4.3l-6.133,11.446ZM140.6,58.813l-1.617,3.357a12.6,12.6,0,0,0-5.41-1.763c-1.11,0-1.859.41-1.859,1.232,0,2.922,8.934,1.256,8.934,7.365,0,3.381-2.994,5.168-6.762,5.168a12.607,12.607,0,0,1-7.726-2.705l1.666-3.308a10.538,10.538,0,0,0,6.109,2.536c1.354,0,2.2-.507,2.2-1.473,0-2.995-8.934-1.207-8.934-7.2,0-3.116,2.68-5.1,6.737-5.1a12.69,12.69,0,0,1,6.663,1.885Zm2.391,15.209v-16.9h4.3v16.9ZM165.4,59.827l-2.487,2.946a5.785,5.785,0,0,0-4.251-2.2,4.944,4.944,0,0,0,0,9.877,6.338,6.338,0,0,0,4.251-1.981l2.51,2.656a10.207,10.207,0,0,1-6.978,3.091,8.585,8.585,0,0,1-8.887-8.694c0-4.877,3.888-8.548,9.032-8.548a9.816,9.816,0,0,1,6.809,2.85Zm1.981,14.195v-16.9h4.3v16.9ZM178.9,70.91l-1.232,3.116H173.25l7.291-16.9h4.419l7.13,16.9H187.5L186.3,70.906Zm3.722-9.512-2.463,6.255h4.878Zm22.841,12.623-7.775-10.409V74.022h-4.033v-16.9h3.791l7.8,10.432V57.123h4.008v16.9ZM225.8,58.813l-1.617,3.357a12.6,12.6,0,0,0-5.41-1.763c-1.11,0-1.859.41-1.859,1.232,0,2.922,8.934,1.256,8.934,7.365,0,3.381-2.994,5.168-6.762,5.168a12.607,12.607,0,0,1-7.726-2.705l1.666-3.308a10.539,10.539,0,0,0,6.11,2.536c1.353,0,2.2-.507,2.2-1.473,0-2.995-8.934-1.207-8.934-7.2,0-3.116,2.68-5.1,6.737-5.1a12.689,12.689,0,0,1,6.663,1.885ZM2.379,92.44a4.562,4.562,0,0,1-1.741-1.7,4.919,4.919,0,0,1,0-4.835,4.571,4.571,0,0,1,1.741-1.7,4.988,4.988,0,0,1,2.483-.621,5.046,5.046,0,0,1,2.484.615,4.526,4.526,0,0,1,1.741,1.7,4.979,4.979,0,0,1,0,4.862,4.532,4.532,0,0,1-1.741,1.7,5.04,5.04,0,0,1-2.484.614,4.989,4.989,0,0,1-2.483-.622ZM6.986,91.9a3.944,3.944,0,0,0,1.5-1.477,4.314,4.314,0,0,0,0-4.207,3.943,3.943,0,0,0-1.5-1.47,4.5,4.5,0,0,0-4.254,0,3.917,3.917,0,0,0-1.5,1.476,4.313,4.313,0,0,0,0,4.207,3.918,3.918,0,0,0,1.5,1.477,4.5,4.5,0,0,0,4.254,0Zm13.223-7.639V88.25h4.982v.614H20.209v4.128h-.681v-9.35h6.251v.615Zm33.672-.613v9.35h-.56l-6.37-8.121v8.121h-.681v-9.35h.573L53.2,91.765V83.644ZM71.03,92.379v.615H64.579v-9.35H70.83v.615H65.26v3.687h4.982v.6H65.26V92.38Zm22.292-8.735-3.166,9.35h-.721l-2.9-8.388-2.912,8.388H82.9l-3.179-9.35h.721l2.845,8.415,2.925-8.415h.653l2.912,8.428,2.872-8.428Zm26.926,8.735v.615H113.8v-9.35h6.251v.615h-5.569v3.687h4.986v.6h-4.981V92.38Zm17.538-8.735v9.35h-.56l-6.372-8.121v8.121h-.681v-9.35h.573l6.357,8.121V83.644Zm17.377,4.715h.653v3.5a4.079,4.079,0,0,1-1.49.895,5.541,5.541,0,0,1-1.85.307,5.1,5.1,0,0,1-2.5-.614,4.512,4.512,0,0,1-1.75-1.7,4.97,4.97,0,0,1,0-4.862,4.506,4.506,0,0,1,1.75-1.7,5.132,5.132,0,0,1,2.517-.615,5.28,5.28,0,0,1,1.889.326,4.051,4.051,0,0,1,1.477.955l-.427.455a3.542,3.542,0,0,0-1.316-.849,4.75,4.75,0,0,0-1.609-.26,4.417,4.417,0,0,0-2.17.534,3.9,3.9,0,0,0-1.516,1.476,4.1,4.1,0,0,0-.544,2.1,4.034,4.034,0,0,0,2.068,3.573,4.33,4.33,0,0,0,2.163.544,4.087,4.087,0,0,0,2.658-.854Zm11.087-4.715h.681v8.735h5.382v.615h-6.064ZM187.3,90.362h-5.423l-1.189,2.631h-.735l4.3-9.35h.681l4.3,9.35H188.5Zm-.254-.575-2.457-5.4-2.444,5.4Zm18.94-6.144v9.35h-.56l-6.37-8.121v8.121h-.681v-9.35h.573l6.358,8.121V83.644Zm10.7,0h3.7a5.414,5.414,0,0,1,2.585.6,4.393,4.393,0,0,1,1.755,1.663,4.941,4.941,0,0,1,0,4.822,4.4,4.4,0,0,1-1.755,1.663,5.422,5.422,0,0,1-2.585.6h-3.7Zm3.647,8.735a4.87,4.87,0,0,0,2.285-.515,3.671,3.671,0,0,0,1.523-1.435,4.437,4.437,0,0,0,0-4.221,3.676,3.676,0,0,0-1.524-1.435,4.876,4.876,0,0,0-2.285-.515h-2.964v8.12Z" transform="translate(0 5.022)" fill="#f3f4f6"/></g></svg>